<?xml version="1.0" standalone="no"?>
<!DOCTYPE svg PUBLIC "-//W3C//DTD SVG 20010904//EN"
 "http://www.w3.org/TR/2001/REC-SVG-20010904/DTD/svg10.dtd">
<svg version="1.0" xmlns="http://www.w3.org/2000/svg"
 width="225.000000pt" height="224.000000pt" viewBox="0 0 225.000000 224.000000"
 preserveAspectRatio="xMidYMid meet">

<g transform="translate(0.000000,224.000000) scale(0.100000,-0.100000)"
fill="#000000" stroke="none">
<path d="M0 1120 l0 -1120 1125 0 1125 0 0 1120 0 1120 -1125 0 -1125 0 0
-1120z m1375 1046 c154 -46 291 -131 406 -252 72 -77 113 -137 159 -237 53
-115 71 -193 77 -338 8 -184 -26 -330 -111 -482 -33 -57 -35 -59 -41 -35 -5
18 2 44 20 84 90 194 113 357 80 549 -31 173 -102 310 -229 440 -153 156 -328
240 -542 261 -107 10 -272 -15 -347 -52 -16 -8 -35 -14 -43 -14 -9 0 -12 -5
-8 -12 4 -6 3 -8 -4 -4 -14 8 -71 -18 -144 -66 -176 -117 -305 -302 -355 -509
-25 -102 -24 -308 1 -404 19 -75 101 -255 115 -255 5 0 17 17 26 38 19 40 61
81 84 82 8 0 22 7 31 15 16 14 14 20 -19 85 -20 38 -42 70 -48 70 -9 0 -10 7
-4 23 5 13 7 60 5 106 -4 85 14 168 42 201 8 9 11 26 7 39 -5 21 -3 23 18 17
13 -3 18 -3 12 0 -7 3 -13 22 -13 42 1 33 8 42 57 82 31 25 69 58 85 73 24 22
33 26 44 16 11 -9 14 -8 14 5 0 29 16 17 40 -29 13 -25 30 -45 37 -45 8 0 13
6 11 12 -3 7 6 21 19 31 13 10 21 24 17 30 -3 7 2 3 10 -7 17 -21 22 -11 7 13
-7 11 -3 20 11 33 26 22 25 22 31 -1 3 -13 0 -18 -8 -15 -9 4 -11 -3 -7 -22 4
-24 6 -25 15 -8 10 17 11 17 18 -1 8 -22 12 32 9 143 -2 69 15 102 52 102 10
0 29 7 42 15 22 14 27 13 76 -12 30 -16 58 -37 64 -48 6 -11 14 -22 17 -25 4
-3 9 -15 13 -27 6 -17 2 -22 -21 -28 -36 -8 -67 -49 -55 -72 8 -14 11 -12 23
13 15 31 53 44 72 25 8 -8 5 -11 -11 -12 -41 -3 -45 -4 -50 -17 -2 -7 0 -12 5
-11 4 1 19 0 33 -1 24 -2 24 -3 -5 -10 l-30 -8 30 -1 c17 0 36 4 43 11 15 15
18 11 25 -32 5 -27 1 -41 -17 -63 -20 -24 -26 -27 -49 -18 -15 6 -27 7 -27 2
0 -13 -64 -33 -82 -26 -9 4 -19 2 -23 -4 -4 -7 5 -12 22 -13 62 -3 100 -1 112
7 7 4 18 2 24 -4 8 -8 7 -11 -6 -11 -9 0 -20 -6 -24 -13 -4 -7 -35 -19 -68
-26 -85 -19 -88 -21 -18 -18 66 3 72 -3 23 -23 -42 -17 -38 -30 10 -30 22 0
40 -3 40 -7 0 -13 -14 -28 -25 -28 -5 0 -25 -4 -42 -9 -36 -8 -37 -8 -89 59
-37 48 -51 85 -33 85 7 0 3 9 -10 21 -12 12 -25 19 -28 16 -2 -3 11 -39 31
-81 20 -41 36 -82 36 -90 0 -20 -55 -52 -127 -74 -72 -23 -123 -56 -121 -80 1
-9 0 -33 -1 -52 -3 -33 -4 -33 -11 -10 -5 17 -8 19 -9 8 -1 -10 -5 -18 -11
-18 -5 0 -10 -8 -10 -17 0 -14 -2 -15 -9 -5 -10 17 -24 -15 -47 -110 -9 -38
-21 -68 -26 -68 -5 0 -6 5 -3 11 4 6 14 38 21 72 11 46 12 62 3 68 -8 5 -6 9
7 12 17 4 16 5 -3 6 -12 0 -24 -5 -26 -11 -3 -8 -6 -6 -6 5 -1 9 5 17 12 18
17 1 -44 28 -65 29 -10 0 -18 -4 -18 -10 0 -5 10 -10 22 -10 21 0 21 0 2 -15
-12 -9 -14 -14 -6 -15 10 0 9 -5 -4 -17 -13 -14 -14 -18 -3 -22 8 -3 14 -15
14 -26 0 -11 6 -26 13 -33 15 -16 16 -32 2 -32 -5 0 -9 -15 -7 -34 2 -33 20
-39 40 -12 6 8 10 7 14 -2 2 -6 9 -10 14 -6 5 3 12 -2 15 -10 3 -9 14 -16 24
-16 25 0 35 -17 13 -23 -10 -2 -52 -1 -94 1 -51 3 -79 1 -83 -7 -5 -8 11 -11
54 -11 74 0 97 -11 116 -55 12 -29 11 -40 -2 -85 -25 -86 -66 -113 -184 -122
l-35 -3 -6 85 c-3 47 -6 77 -7 67 -1 -10 -6 -15 -12 -12 -6 3 -10 -4 -10 -16
l0 -23 -20 22 c-26 28 -37 28 -36 1 2 -41 -21 -30 -59 27 -137 206 -173 504
-93 754 81 252 278 461 528 560 167 67 402 77 575 26z m-585 -146 c13 -8 13
-10 -2 -10 -9 0 -20 5 -23 10 -8 13 5 13 25 0z m563 -357 c-4 -10 -2 -14 4
-10 7 4 14 -5 18 -22 3 -16 13 -32 21 -35 9 -3 12 -10 9 -16 -3 -5 -2 -10 3
-10 6 0 24 -13 41 -29 23 -21 31 -38 31 -63 0 -25 9 -43 35 -68 38 -39 44 -64
18 -79 -13 -8 -14 -10 -4 -11 8 0 12 -3 9 -6 -10 -9 -171 68 -203 98 -17 15
-36 28 -43 28 -21 0 -25 51 -8 105 9 28 16 59 16 68 0 9 11 27 24 40 14 14 22
28 18 33 -4 4 -2 4 5 0 7 -4 9 -14 6 -23z m416 -215 c2 -64 6 -96 11 -91 3 2
12 -19 20 -49 13 -43 20 -54 40 -56 14 -2 29 -10 33 -18 4 -8 14 -14 22 -14 7
0 17 -10 21 -22 4 -13 10 -25 14 -28 12 -8 19 -79 9 -85 -5 -4 -9 -15 -9 -26
0 -23 -57 -82 -71 -74 -5 4 -12 0 -15 -8 -4 -11 -18 -14 -47 -13 -37 2 -46 -2
-80 -38 -20 -22 -54 -73 -75 -113 -20 -40 -41 -73 -45 -73 -4 0 -7 24 -5 53 3
45 6 52 26 55 22 3 52 47 52 76 0 21 -31 36 -77 37 l-38 1 38 10 38 10 -2 77
c0 42 2 83 6 92 3 9 -1 43 -9 75 -15 58 -15 59 4 34 10 -13 21 -37 24 -52 6
-32 26 -38 26 -8 0 13 7 20 19 20 16 0 21 9 27 46 3 25 4 60 1 79 -4 22 -1 38
7 45 8 6 16 28 20 50 8 48 14 51 15 8z m-695 -14 c25 -9 19 -26 -6 -20 -13 3
-17 3 -10 0 6 -3 12 -10 12 -15 0 -6 -7 -6 -19 0 -17 10 -18 7 -14 -27 3 -25
1 -32 -5 -23 -8 11 -10 11 -15 0 -3 -8 -6 2 -6 22 -1 27 5 41 22 52 27 19 22
18 41 11z m111 -96 c-4 -18 -13 -36 -19 -40 -21 -14 -84 -8 -107 11 l-23 18
32 -5 c18 -2 29 -8 26 -13 -8 -13 3 -11 36 6 16 8 31 24 35 35 11 34 27 23 20
-12z m390 -38 c3 -6 -1 -7 -9 -4 -18 7 -21 14 -7 14 6 0 13 -4 16 -10z m54
-132 c2 -30 -17 -20 -24 12 -8 38 6 65 16 30 4 -14 7 -33 8 -42z m-831 -100
c2 -19 -3 -30 -17 -38 -28 -15 -61 3 -61 34 0 31 9 37 45 34 24 -2 31 -8 33
-30z m72 22 c0 -5 -8 -11 -17 -11 -17 -1 -17 -2 0 -6 21 -5 23 -23 2 -23 -8 0
-15 -4 -15 -10 0 -5 -7 -10 -15 -10 -10 0 -15 11 -15 35 0 32 2 35 30 35 17 0
30 -4 30 -10z m110 -25 c0 -24 -5 -35 -15 -35 -10 0 -15 10 -15 29 0 25 -3 28
-22 23 -19 -5 -20 -7 -5 -10 20 -4 23 -22 3 -22 -8 0 -17 -7 -20 -16 -10 -25
-26 -6 -26 32 l0 34 50 0 50 0 0 -35z m80 19 c0 -11 -6 -14 -20 -9 -15 5 -20
2 -20 -10 0 -12 5 -15 16 -11 9 3 20 6 25 6 5 0 9 9 9 20 0 11 7 20 15 20 10
0 15 -11 15 -35 0 -24 -5 -35 -15 -35 -8 0 -15 5 -15 11 0 6 -7 4 -15 -5 -30
-30 -77 8 -61 50 8 20 66 19 66 -2z m119 -16 l9 -33 1 33 c1 39 31 46 31 7 0
-18 5 -25 20 -25 11 0 20 -4 20 -9 0 -12 -88 -19 -99 -8 -5 5 -18 4 -30 -2
-24 -13 -26 -7 -10 38 15 42 45 42 58 -1z m190 15 c10 -17 10 -17 11 0 0 10 8
17 20 17 10 0 23 -8 29 -17 9 -17 10 -17 16 0 5 11 18 17 41 17 25 0 34 -4 35
-17 1 -17 2 -17 6 0 3 12 14 17 37 17 30 0 32 -2 32 -34 l0 -34 -65 -4 c-44
-2 -69 1 -78 10 -9 10 -13 10 -13 2 0 -8 -9 -10 -24 -6 -14 3 -28 1 -31 -4 -9
-15 -25 -2 -19 15 4 10 0 12 -15 8 -12 -3 -21 -9 -21 -14 0 -5 -7 -9 -15 -9
-10 0 -15 11 -15 35 0 32 2 35 30 35 17 0 33 -7 39 -17z m-489 -103 c0 -5 -5
-10 -11 -10 -5 0 -7 5 -4 10 3 6 8 10 11 10 2 0 4 -4 4 -10z m450 -5 c0 -10
-10 -15 -34 -15 -28 0 -36 -5 -46 -30 -15 -37 -34 -52 -21 -17 6 14 7 27 4 30
-11 11 25 36 58 40 19 2 35 5 37 5 1 1 2 -5 2 -13z m-190 1 c0 -9 -30 -14 -35
-6 -4 6 3 10 14 10 12 0 21 -2 21 -4z m-160 -20 c0 -6 -5 -18 -10 -26 -8 -13
-10 -12 -10 3 0 10 -10 22 -22 26 -20 8 -19 9 10 9 17 -1 32 -6 32 -12z m-105
-7 c43 12 61 -1 69 -51 4 -21 11 -38 15 -38 5 0 19 20 32 44 34 66 79 73 79
13 1 -18 6 -42 13 -55 12 -21 14 -20 32 30 10 29 23 56 28 59 9 7 67 -8 67
-17 0 -3 -12 -22 -26 -43 -14 -22 -38 -70 -53 -108 -18 -45 -36 -72 -52 -80
-28 -14 -35 -6 -54 66 l-12 46 -31 -49 c-18 -28 -32 -53 -32 -57 0 -4 -11 -9
-25 -11 -28 -6 -29 -5 -46 105 -7 46 -19 86 -30 99 -19 21 -19 19 -19 -85 0
-97 -2 -107 -21 -117 -41 -22 -49 -7 -49 90 0 65 -4 97 -16 114 -17 26 -12 33
34 46 15 4 35 3 45 -2 10 -5 31 -5 52 1z m511 -69 c33 -100 43 -168 27 -181
-20 -18 -60 -2 -67 26 -5 21 -12 25 -46 25 -34 0 -42 -4 -50 -25 -10 -26 -34
-32 -60 -15 -19 12 -8 43 57 157 47 82 49 84 83 81 34 -3 36 -6 56 -68z m252
54 c23 -7 -17 -54 -46 -54 l-25 0 5 -96 5 -95 -41 3 -41 3 0 95 0 95 -37 -3
c-32 -3 -38 -1 -38 16 0 47 5 49 108 45 53 -3 103 -6 110 -9z m199 -94 c35
-112 32 -107 43 -90 7 10 10 11 10 3 0 -7 11 -13 24 -13 25 0 24 2 25 -106 l0
-41 66 -5 c36 -3 76 -13 91 -23 25 -16 26 -20 21 -83 -9 -115 -1 -107 -108
-104 -52 2 -106 9 -120 16 -17 9 -32 10 -47 3 -11 -5 -29 -6 -39 -2 -20 9 -84
13 -225 15 -78 1 -99 4 -106 17 -6 11 -11 12 -16 4 -11 -17 -187 -15 -211 3
-17 12 -22 12 -39 0 -26 -18 -60 -18 -76 0 -12 15 -44 11 -35 -4 3 -5 -19 -8
-49 -7 -55 3 -82 16 -97 52 -9 19 -9 19 -6 0 4 -36 -49 -52 -188 -57 -69 -3
-128 -1 -131 3 -2 5 -17 4 -32 -2 -41 -16 -131 -16 -141 -1 -6 10 -10 10 -21
-3 -14 -17 -71 -20 -86 -5 -7 7 -19 3 -38 -15 -33 -31 -96 -36 -97 -7 0 9 -3
30 -5 45 -3 19 -1 26 6 22 14 -9 13 68 -1 82 -20 20 -2 61 30 68 31 7 139 3
139 -5 -1 -18 4 -19 18 -6 8 9 27 19 42 22 15 4 32 13 38 20 10 12 13 12 18
-1 4 -11 2 -14 -6 -9 -7 5 -8 3 -3 -6 6 -10 11 -9 21 4 9 13 13 14 17 4 4 -9
6 -8 6 3 1 12 14 16 53 18 28 1 66 8 84 16 18 7 36 10 40 7 4 -4 4 -2 1 4 -4
7 0 17 8 24 12 10 15 9 15 -4 0 -9 5 -16 11 -16 5 0 8 -4 5 -8 -10 -17 58 -11
90 7 26 16 34 17 34 6 0 -7 -3 -15 -7 -18 -5 -2 -2 -2 4 -1 7 2 16 -2 20 -9 5
-7 16 -18 26 -26 16 -12 18 -12 15 0 -2 8 -10 17 -18 21 -10 4 -4 9 19 14 22
4 39 17 50 35 18 32 31 37 31 14 0 -8 9 -24 20 -35 15 -15 25 -18 42 -11 13 5
28 8 33 8 10 -1 12 2 66 121 19 41 37 76 41 78 4 3 -8 -28 -27 -68 -36 -75
-42 -102 -25 -113 6 -4 8 -10 6 -14 -4 -6 14 -10 59 -11 11 -1 29 11 40 25 23
27 55 34 55 10 0 -25 47 -48 84 -42 19 3 39 0 45 -6 8 -8 11 -8 11 2 0 7 6 11
13 9 6 -3 12 -11 12 -19 0 -7 9 -15 20 -16 l20 -3 -20 9 c-16 8 -13 10 19 10
37 1 39 0 20 -14 -21 -16 -11 -18 21 -6 14 6 25 2 37 -12 10 -11 16 -23 13
-27 -2 -3 2 -7 10 -7 10 0 12 4 5 12 -5 7 -7 14 -4 17 3 3 -6 15 -20 26 -19
14 -22 21 -13 25 8 3 20 1 28 -4 12 -7 12 -9 0 -9 -11 0 -11 -3 -1 -14 6 -8
19 -12 28 -9 14 4 15 3 2 -6 -21 -15 -7 -23 21 -12 13 5 18 10 12 10 -21 1
-15 28 8 34 11 3 23 15 26 26 6 23 43 30 43 9 0 -7 5 -5 11 5 13 23 12 24 -32
32 -33 6 -37 4 -43 -19 -7 -29 -45 -36 -65 -12 -15 17 -3 44 68 154 44 69 48
72 81 70 33 -3 35 -5 57 -78z m-370 -72 c-2 -51 -9 -94 -15 -96 -6 -2 -8 5 -6
16 3 10 -2 49 -10 86 -9 37 -16 69 -16 71 0 3 25 11 43 14 5 0 7 -40 4 -91z"/>
<path d="M1016 1812 c-3 -6 8 -12 24 -14 19 -3 29 -1 27 6 -5 14 -43 20 -51 8z"/>
<path d="M994 1764 c-18 -15 -18 -15 6 -10 14 3 33 6 43 6 9 0 17 5 17 10 0
16 -44 12 -66 -6z"/>
<path d="M575 1560 c-3 -5 -1 -10 4 -10 6 0 11 5 11 10 0 6 -2 10 -4 10 -3 0
-8 -4 -11 -10z"/>
<path d="M593 849 c3 -23 2 -52 -3 -64 -12 -31 3 -49 34 -41 48 12 60 112 16
136 -40 22 -53 13 -47 -31z m42 -10 c8 -25 -2 -69 -15 -69 -6 0 -10 20 -10 45
0 47 14 60 25 24z"/>
<path d="M750 1065 c0 -8 5 -15 10 -15 6 0 10 7 10 15 0 8 -4 15 -10 15 -5 0
-10 -7 -10 -15z"/>
<path d="M1470 1063 c0 -10 4 -14 8 -8 4 6 11 13 16 18 5 4 2 7 -7 7 -10 0
-17 -8 -17 -17z"/>
<path d="M1302 843 c-16 -29 -15 -30 8 -36 21 -5 24 4 11 38 -8 19 -8 19 -19
-2z"/>
<path d="M1746 814 c-7 -18 0 -34 15 -34 5 0 9 11 9 25 0 28 -15 34 -24 9z"/>
<path d="M1116 654 c-20 -20 -20 -19 5 -21 15 -1 19 2 15 13 -5 12 -1 14 17 9
17 -5 19 -4 7 4 -20 14 -26 14 -44 -5z"/>
<path d="M1220 645 c-9 -10 -9 -15 -1 -15 6 0 11 5 11 11 0 5 5 7 12 3 7 -4 8
-3 4 4 -9 15 -11 15 -26 -3z"/>
<path d="M858 643 c7 -3 16 -2 19 1 4 3 -2 6 -13 5 -11 0 -14 -3 -6 -6z"/>
<path d="M808 633 c6 -2 18 -2 25 0 6 3 1 5 -13 5 -14 0 -19 -2 -12 -5z"/>
<path d="M1710 629 c0 -5 5 -7 10 -4 6 3 10 8 10 11 0 2 -4 4 -10 4 -5 0 -10
-5 -10 -11z"/>
<path d="M700 602 c-27 -4 -53 -22 -32 -22 8 0 12 -21 12 -65 0 -36 3 -65 8
-66 69 -4 184 1 200 10 32 17 28 53 -8 80 -32 23 -31 46 1 38 14 -4 19 0 19
14 0 14 -7 19 -26 19 -64 0 -84 -47 -39 -90 14 -13 25 -26 25 -30 0 -4 -29 -7
-65 -8 -47 0 -65 3 -65 13 0 7 9 15 20 18 11 3 20 10 20 16 0 6 -9 11 -20 11
-11 0 -20 7 -20 15 0 8 8 15 19 15 22 0 46 25 32 34 -9 6 -28 5 -81 -2z"/>
<path d="M1048 603 c-16 -2 -28 -8 -28 -13 0 -5 7 -7 16 -3 28 10 45 -47 28
-91 -16 -40 -61 5 -50 49 5 19 2 23 -14 22 -24 -2 -34 -27 -25 -67 11 -50 56
-68 103 -40 39 24 53 87 28 125 -9 14 -20 24 -24 24 -4 -1 -19 -4 -34 -6z"/>
<path d="M1133 602 c-9 -6 -9 -17 2 -47 8 -22 14 -55 15 -72 0 -52 34 -44 64
15 13 26 31 56 40 67 14 19 15 15 16 -47 l0 -68 54 0 c39 0 55 4 60 15 4 12
-3 15 -29 15 -39 0 -50 26 -13 32 32 5 35 28 4 28 -38 0 -33 27 7 33 17 2 36
2 40 0 5 -3 7 -30 6 -62 -2 -57 -1 -61 26 -61 10 0 15 10 15 33 1 35 1 35 46
-28 13 -18 15 -18 30 -3 15 15 14 18 -6 46 -19 25 -20 32 -9 51 25 38 -2 48
-145 54 l-128 6 -16 -40 c-17 -44 -32 -51 -32 -15 0 49 -17 67 -47 48z m327
-41 c0 -6 -4 -13 -10 -16 -5 -3 -10 1 -10 9 0 9 5 16 10 16 6 0 10 -4 10 -9z"/>
<path d="M530 588 c-15 -6 -20 -12 -12 -15 8 -3 12 -26 12 -67 0 -70 3 -76 31
-69 13 4 19 14 19 34 0 37 13 37 40 -1 25 -35 36 -38 45 -9 5 14 0 28 -15 44
-18 20 -20 26 -9 43 27 43 -43 69 -111 40z m70 -33 c0 -8 -4 -15 -10 -15 -5 0
-10 7 -10 15 0 8 5 15 10 15 6 0 10 -7 10 -15z"/>
<path d="M1550 594 c-12 -4 -15 -21 -15 -80 l0 -75 54 3 c61 3 82 25 29 30
l-33 3 -3 63 c-2 34 -6 61 -10 61 -4 -1 -14 -3 -22 -5z"/>
<path d="M394 514 c-29 -62 -34 -78 -23 -85 9 -6 19 -3 30 10 22 27 55 30 72
7 17 -24 51 -15 44 11 -31 115 -40 133 -63 133 -19 0 -30 -14 -60 -76z m55
-15 c-18 -11 -22 -5 -14 22 7 20 8 21 17 4 8 -12 7 -20 -3 -26z"/>
<path d="M1675 566 c-69 -70 20 -178 96 -117 19 15 24 29 24 65 0 53 -7 61
-58 70 -31 6 -41 3 -62 -18z m70 -52 c0 -56 -19 -66 -44 -23 -13 24 -13 29 3
53 25 39 41 28 41 -30z"/>
<path d="M235 570 c-4 -7 -2 -17 4 -23 6 -6 11 -33 11 -59 0 -36 4 -48 15 -48
9 0 20 11 25 25 5 14 17 25 28 25 26 0 49 46 36 68 -13 20 -108 30 -119 12z
m79 -29 c3 -5 -1 -14 -9 -21 -13 -10 -15 -9 -15 9 0 21 14 28 24 12z"/>
<path d="M1847 533 c-13 -21 -31 -52 -40 -70 -15 -29 -15 -32 0 -38 11 -3 22
0 29 9 17 23 61 20 69 -4 4 -11 15 -20 26 -20 22 0 22 6 -3 113 -10 39 -16 47
-35 47 -15 0 -30 -12 -46 -37z m43 -33 c0 -11 -7 -20 -15 -20 -13 0 -14 4 -5
20 6 11 13 20 15 20 3 0 5 -9 5 -20z"/>
<path d="M1950 550 c0 -5 4 -10 10 -10 5 0 8 -29 7 -67 l-2 -68 38 -3 c28 -2
37 0 37 12 0 10 -9 16 -21 16 -19 0 -21 4 -15 38 3 20 6 43 6 50 0 6 9 12 20
12 23 0 36 -37 26 -74 -5 -21 -3 -24 14 -23 13 1 23 10 26 27 3 14 7 31 10 38
2 7 -7 24 -21 38 -20 20 -34 24 -80 24 -30 0 -55 -4 -55 -10z"/>
<path d="M285 430 c-3 -5 -1 -10 4 -10 6 0 11 5 11 10 0 6 -2 10 -4 10 -3 0
-8 -4 -11 -10z"/>
</g>
</svg>
